<svg version="1.2" xmlns="http://www.w3.org/2000/svg" viewBox="0 0 1017 874" width="1017" height="874">
	<style>
		.s0 { fill: #000000 } 
	</style>
	<path class="s0" d="m420.9 4.33q11.46-0.3 22.93-0.27l109.28 0.02c53.53 0.05 114.86-6.62 143.53 50.65 12.69 25.36 8.83 68.25 8.71 96.95 21.71 0.2 48.72-2.22 66.99 11.25 8.72 5.28 11.92 17.02 17.6 23.62 23.58 27.43 32.93 49.95 37.68 86.62 12.4 8.23 16.28 11.13 23.28 24.59-0.86-4.26-1.19-8.09-1.67-12.42-4.44-39.17-13.39-83.45-42.77-112.04-4.96-4.82-12.25-9.28-18.05-13.05q6.03-0.4 12.07-0.5 23.06-0.33 46.14-0.3c37.22-0.02 68.23 0.47 97.2 28.34 20.25 19.48 28.49 45.92 28.46 73.38-0.13 111.08-0.08 222.17-0.06 333.25l0.05 97.67c0.01 19.28 1.04 40.61-1.63 59.48-5.67 39.92-35.65 71.86-75.28 79.95-11.46 2.33-21.68 2.36-33.32 2.42-6.56 31.35-23.98 36.03-53.59 35.23-21.74-0.58-44.72 4.2-60.44-14.28-5.1-7.26-5.65-12.41-5.95-20.99-150.44 0.08-303.23-1.5-453.45 0.19-3.04 41.32-36.64 34.4-67.26 35-28.66 0.57-47.53-3.31-51.96-35.06-33.02-0.48-58.65-2.35-84.42-27.96-12.79-12.81-21.6-29.04-25.37-46.74-3.64-16.91-2.88-34.63-2.84-51.88l0.04-51.82 0.02-193.02c40.57 24.59 44.55 7.12 65.49-27.58 7.57-12.53 15.01-25.6 22.45-38.21l28.64-48.39c7.72-13.04 19.34-30.55 23.45-44.82 6.43-22.28-6.7-47.91-24.55-60.45 9.3-19.26 27.14-39.7 45.06-51.07 16.56-10.51 21.91-13.04 34.19-28.14 12.27-15.09 50.93-11.91 70-11.68 1.29-42.52-7.86-86.73 24.56-119.43 22.43-22.62 44.63-27.77 74.79-28.51zm123.14 777.13c58.89-2.49 237.49-17.15 275.9-59.56 5.87-6.49 9.92-14.85 11.05-23.56 2.06-15.8 0.87-32.93 0.86-48.88l-0.04-88.76-0.03-137.29c-0.01-25.02 0.97-50.45-0.46-75.41-0.66-11.73-4.89-21.33-13.84-29.2-45.33-39.79-264.8-47-332.19-45.52-53.69 2.72-242.64 9.64-277.84 47.68-5.43 5.86-8.94 13.24-10.06 21.15-1.34 9.54-1.12 21.76-1.33 31.52-1.08 49.2 0.28 98.37 0.64 147.55l0.01 113.95c-0.01 18.35-0.84 37.09 0.17 55.39 0.77 13.91 5.14 26.65 15.87 36.02 39.85 34.78 192.75 50.22 247.5 53.52 27.9 1.57 55.85 2.03 83.79 1.4zm66.37-630.52c28.08-0.63 26.37-19.28 26.49-41.34 0.2-38-32.19-33.32-59.21-33.34l-56.25-0.02-65.86 0.01c-9.54 0.01-26.7-0.88-35.65 0.45-17.6 2.32-26.36 9.41-28.48 27.16-1.25 10.55-1.04 38.46 8.56 42.8 15.26 6.9 67.5 4.38 84.48 4.37z"/>
	<path class="s0" d="m635.59 439.99c56.86-6.52 60.05 39.79 58.05 80.29-1.81 36.51 4.74 64.08-40.13 74.93-11.98 1.85-26.53-0.66-36.92-7.02-10.6-6.63-18.06-17.26-20.71-29.47-4.27-19.05-1-58.7-0.87-79.45 0.12-21.36 21.4-35.25 40.58-39.28z"/>
	<path class="s0" d="m395.35 439.98c46.27-4.42 60.02 26.27 57.88 66.29-2.04 38.21 9.63 76.6-39.87 88.73-12.55 1.5-24.67 0.37-35.79-6.1-10.45-6.13-17.95-16.25-20.76-28.04-4.68-19.3-1.33-60.5-1.01-81.5 0.32-21.13 20.23-35.19 39.55-39.38z"/>
	<path class="s0" d="m159.39 159.85c21.25-0.6 66.93-1.5 86.61 1.12-7.45 5.37-18.93 10.57-27.23 16.03-22.74 14.98-48.15 41.52-57.42 67.42 36.41 11.89 42.98 47.18 23.3 77.95-5.6 8.77-12 19.91-17.32 29.12-17.36 30.07-36.1 59.69-52.9 90.04-6.16 10.13-16.31 19.45-29.07 12.51-19.5-10.6-38.95-22.01-58.24-33.02-30.91-17.65-12.73-41.06 0.23-63.86l27.24-47.45c2.19-3.8 11.08-18.57 11.3-21.49 2.82-37.22-4.3-61.32 22.66-94.4q1.19-1.47 2.44-2.88c18.28-20.65 41.51-29.39 68.4-31.09zm-13.5 144.9c2.71-2.41 4.59-3.81 6.58-6.88l-0.36-1.81c-5.06-2.06-12.83-3.84-14.7-8.81-1.46-3.97-1.17-8.38 0.79-12.12 1.9-3.55 4.3-4.44 5.86-7.03-1.6-1.36-8.04-1.06-10.45-0.92-6.15 2.78-10.21 5.1-12.79 12-1.96 5.22-1.74 11 0.6 16.05 2.17 4.72 6.19 8.34 11.1 10.02 5.22 1.77 8.39 0.8 13.37-0.5z"/>
</svg>